<mxfile host="65bd71144e">
    <diagram name="Prim" id="5o29vRfOSNf-z7oVsWWK">
        <mxGraphModel dx="1146" dy="1076" grid="0" gridSize="10" guides="1" tooltips="1" connect="1" arrows="1" fold="1" page="1" pageScale="1" pageWidth="1169" pageHeight="827" background="#ffffff" math="0" shadow="0">
            <root>
                <mxCell id="CtqJxJh_Qd7vwC6tXsC5-0"/>
                <mxCell id="CtqJxJh_Qd7vwC6tXsC5-1" parent="CtqJxJh_Qd7vwC6tXsC5-0"/>
                <mxCell id="CtqJxJh_Qd7vwC6tXsC5-2" value="&lt;font style=&quot;font-size: 14px;&quot;&gt;10&lt;/font&gt;" style="edgeStyle=none;html=1;entryX=0.5;entryY=0;entryDx=0;entryDy=0;endArrow=none;endFill=0;labelBackgroundColor=none;fontColor=#000000;fillColor=#f5f5f5;strokeColor=#666666;" edge="1" parent="CtqJxJh_Qd7vwC6tXsC5-1" source="CtqJxJh_Qd7vwC6tXsC5-5" target="CtqJxJh_Qd7vwC6tXsC5-15">
                    <mxGeometry x="-0.0021" relative="1" as="geometry">
                        <mxPoint as="offset"/>
                    </mxGeometry>
                </mxCell>
                <mxCell id="CtqJxJh_Qd7vwC6tXsC5-3" value="&lt;font style=&quot;font-size: 13px;&quot;&gt;4&lt;/font&gt;" style="edgeStyle=none;html=1;entryX=0;entryY=0;entryDx=0;entryDy=0;endArrow=none;endFill=0;fillColor=#f5f5f5;strokeColor=#4E6FF4;labelBackgroundColor=none;fontColor=#000000;strokeWidth=7;" edge="1" parent="CtqJxJh_Qd7vwC6tXsC5-1" source="CtqJxJh_Qd7vwC6tXsC5-5" target="CtqJxJh_Qd7vwC6tXsC5-17">
                    <mxGeometry relative="1" as="geometry"/>
                </mxCell>
                <mxCell id="CtqJxJh_Qd7vwC6tXsC5-4" value="&lt;font style=&quot;font-size: 13px;&quot;&gt;2&lt;/font&gt;" style="edgeStyle=none;html=1;entryX=0.5;entryY=0;entryDx=0;entryDy=0;endArrow=none;endFill=0;strokeWidth=7;fillColor=#f5f5f5;strokeColor=#4E6FF4;labelBackgroundColor=none;fontColor=#000000;" edge="1" parent="CtqJxJh_Qd7vwC6tXsC5-1" source="CtqJxJh_Qd7vwC6tXsC5-5" target="CtqJxJh_Qd7vwC6tXsC5-21">
                    <mxGeometry x="-0.5" y="20" relative="1" as="geometry">
                        <mxPoint as="offset"/>
                    </mxGeometry>
                </mxCell>
                <mxCell id="CtqJxJh_Qd7vwC6tXsC5-5" value="A" style="ellipse;whiteSpace=wrap;html=1;aspect=fixed;labelBackgroundColor=none;fontColor=#333333;fillColor=#f5f5f5;strokeColor=#666666;" vertex="1" parent="CtqJxJh_Qd7vwC6tXsC5-1">
                    <mxGeometry x="80" y="120" width="80" height="80" as="geometry"/>
                </mxCell>
                <mxCell id="CtqJxJh_Qd7vwC6tXsC5-6" value="&lt;font style=&quot;font-size: 14px;&quot;&gt;1&lt;/font&gt;" style="edgeStyle=none;html=1;entryX=0;entryY=0;entryDx=0;entryDy=0;endArrow=none;endFill=0;fillColor=#f5f5f5;strokeColor=#4E6FF4;labelBackgroundColor=none;fontColor=#000000;strokeWidth=7;" edge="1" parent="CtqJxJh_Qd7vwC6tXsC5-1" source="CtqJxJh_Qd7vwC6tXsC5-9" target="CtqJxJh_Qd7vwC6tXsC5-20">
                    <mxGeometry relative="1" as="geometry"/>
                </mxCell>
                <mxCell id="CtqJxJh_Qd7vwC6tXsC5-7" value="&lt;font style=&quot;font-size: 14px;&quot;&gt;5&lt;/font&gt;" style="edgeStyle=none;html=1;entryX=1;entryY=0;entryDx=0;entryDy=0;endArrow=none;endFill=0;fillColor=#f5f5f5;strokeColor=#4E6FF4;labelBackgroundColor=none;fontColor=#000000;strokeWidth=7;" edge="1" parent="CtqJxJh_Qd7vwC6tXsC5-1" source="CtqJxJh_Qd7vwC6tXsC5-9" target="CtqJxJh_Qd7vwC6tXsC5-17">
                    <mxGeometry relative="1" as="geometry"/>
                </mxCell>
                <mxCell id="CtqJxJh_Qd7vwC6tXsC5-8" value="&lt;font style=&quot;font-size: 14px;&quot;&gt;6&lt;/font&gt;" style="edgeStyle=none;html=1;entryX=0.5;entryY=0;entryDx=0;entryDy=0;endArrow=none;endFill=0;labelBackgroundColor=none;fontColor=#000000;fillColor=#f5f5f5;strokeColor=#4E6FF4;strokeWidth=7;" edge="1" parent="CtqJxJh_Qd7vwC6tXsC5-1" source="CtqJxJh_Qd7vwC6tXsC5-9" target="CtqJxJh_Qd7vwC6tXsC5-22">
                    <mxGeometry x="-0.5" y="-20" relative="1" as="geometry">
                        <mxPoint as="offset"/>
                    </mxGeometry>
                </mxCell>
                <mxCell id="CtqJxJh_Qd7vwC6tXsC5-9" value="C" style="ellipse;whiteSpace=wrap;html=1;aspect=fixed;labelBackgroundColor=none;fontColor=#333333;fillColor=#f5f5f5;strokeColor=#666666;" vertex="1" parent="CtqJxJh_Qd7vwC6tXsC5-1">
                    <mxGeometry x="400" y="120" width="80" height="80" as="geometry"/>
                </mxCell>
                <mxCell id="CtqJxJh_Qd7vwC6tXsC5-10" value="&lt;font style=&quot;font-size: 14px;&quot;&gt;2&lt;/font&gt;" style="edgeStyle=none;html=1;entryX=0.5;entryY=0;entryDx=0;entryDy=0;endArrow=none;endFill=0;fillColor=#f5f5f5;strokeColor=#4E6FF4;labelBackgroundColor=none;fontColor=#000000;strokeWidth=7;" edge="1" parent="CtqJxJh_Qd7vwC6tXsC5-1" source="CtqJxJh_Qd7vwC6tXsC5-11" target="CtqJxJh_Qd7vwC6tXsC5-20">
                    <mxGeometry relative="1" as="geometry">
                        <mxPoint as="offset"/>
                    </mxGeometry>
                </mxCell>
                <mxCell id="CtqJxJh_Qd7vwC6tXsC5-11" value="F" style="ellipse;whiteSpace=wrap;html=1;aspect=fixed;labelBackgroundColor=none;fontColor=#333333;fillColor=#f5f5f5;strokeColor=#666666;" vertex="1" parent="CtqJxJh_Qd7vwC6tXsC5-1">
                    <mxGeometry x="720" y="120" width="80" height="80" as="geometry"/>
                </mxCell>
                <mxCell id="CtqJxJh_Qd7vwC6tXsC5-12" value="&lt;font style=&quot;font-size: 13px;&quot;&gt;6&lt;/font&gt;" style="edgeStyle=none;html=1;entryX=0;entryY=0.5;entryDx=0;entryDy=0;endArrow=none;endFill=0;fillColor=#f5f5f5;strokeColor=#4E6FF4;labelBackgroundColor=none;fontColor=#000000;strokeWidth=7;" edge="1" parent="CtqJxJh_Qd7vwC6tXsC5-1" source="CtqJxJh_Qd7vwC6tXsC5-15" target="CtqJxJh_Qd7vwC6tXsC5-17">
                    <mxGeometry x="0.375" y="-10" relative="1" as="geometry">
                        <mxPoint as="offset"/>
                    </mxGeometry>
                </mxCell>
                <mxCell id="CtqJxJh_Qd7vwC6tXsC5-13" value="&lt;font style=&quot;font-size: 14px;&quot;&gt;7&lt;/font&gt;" style="edgeStyle=none;html=1;entryX=0;entryY=0.5;entryDx=0;entryDy=0;endArrow=none;endFill=0;fillColor=#f5f5f5;strokeColor=#000000;labelBackgroundColor=none;fontColor=#000000;strokeWidth=1;" edge="1" parent="CtqJxJh_Qd7vwC6tXsC5-1" source="CtqJxJh_Qd7vwC6tXsC5-15" target="CtqJxJh_Qd7vwC6tXsC5-22">
                    <mxGeometry relative="1" as="geometry"/>
                </mxCell>
                <mxCell id="CtqJxJh_Qd7vwC6tXsC5-14" value="&lt;font style=&quot;font-size: 14px;&quot;&gt;7&lt;/font&gt;" style="edgeStyle=none;html=1;entryX=0;entryY=0.5;entryDx=0;entryDy=0;endArrow=none;endFill=0;labelBackgroundColor=none;fontColor=#000000;fillColor=#f5f5f5;strokeColor=#666666;" edge="1" parent="CtqJxJh_Qd7vwC6tXsC5-1" source="CtqJxJh_Qd7vwC6tXsC5-15" target="CtqJxJh_Qd7vwC6tXsC5-21">
                    <mxGeometry relative="1" as="geometry"/>
                </mxCell>
                <mxCell id="CtqJxJh_Qd7vwC6tXsC5-15" value="H" style="ellipse;whiteSpace=wrap;html=1;aspect=fixed;labelBackgroundColor=none;fontColor=#333333;fillColor=#f5f5f5;strokeColor=#666666;" vertex="1" parent="CtqJxJh_Qd7vwC6tXsC5-1">
                    <mxGeometry y="280" width="80" height="80" as="geometry"/>
                </mxCell>
                <mxCell id="CtqJxJh_Qd7vwC6tXsC5-16" value="&lt;font style=&quot;font-size: 14px;&quot;&gt;6&lt;/font&gt;" style="edgeStyle=none;html=1;entryX=0;entryY=0.5;entryDx=0;entryDy=0;endArrow=none;endFill=0;labelBackgroundColor=none;fontColor=#000000;fillColor=#f5f5f5;strokeColor=#666666;" edge="1" parent="CtqJxJh_Qd7vwC6tXsC5-1" source="CtqJxJh_Qd7vwC6tXsC5-17" target="CtqJxJh_Qd7vwC6tXsC5-20">
                    <mxGeometry y="20" relative="1" as="geometry">
                        <Array as="points">
                            <mxPoint x="440" y="320"/>
                        </Array>
                        <mxPoint as="offset"/>
                    </mxGeometry>
                </mxCell>
                <mxCell id="CtqJxJh_Qd7vwC6tXsC5-17" value="B" style="ellipse;whiteSpace=wrap;html=1;aspect=fixed;labelBackgroundColor=none;fontColor=#333333;fillColor=#f5f5f5;strokeColor=#666666;" vertex="1" parent="CtqJxJh_Qd7vwC6tXsC5-1">
                    <mxGeometry x="240" y="280" width="80" height="80" as="geometry"/>
                </mxCell>
                <mxCell id="CtqJxJh_Qd7vwC6tXsC5-18" value="&lt;font style=&quot;font-size: 14px;&quot;&gt;12&lt;/font&gt;" style="edgeStyle=none;html=1;entryX=1;entryY=0.5;entryDx=0;entryDy=0;endArrow=none;endFill=0;labelBackgroundColor=none;fontColor=#000000;fillColor=#f5f5f5;strokeColor=#666666;" edge="1" parent="CtqJxJh_Qd7vwC6tXsC5-1" source="CtqJxJh_Qd7vwC6tXsC5-20" target="CtqJxJh_Qd7vwC6tXsC5-21">
                    <mxGeometry x="-0.295" y="-14" relative="1" as="geometry">
                        <mxPoint as="offset"/>
                    </mxGeometry>
                </mxCell>
                <mxCell id="CtqJxJh_Qd7vwC6tXsC5-19" value="&lt;font style=&quot;font-size: 14px;&quot;&gt;8&lt;/font&gt;" style="edgeStyle=none;html=1;entryX=1;entryY=0.5;entryDx=0;entryDy=0;endArrow=none;endFill=0;labelBackgroundColor=none;fontColor=#000000;fillColor=#f5f5f5;strokeColor=#666666;" edge="1" parent="CtqJxJh_Qd7vwC6tXsC5-1" source="CtqJxJh_Qd7vwC6tXsC5-20" target="CtqJxJh_Qd7vwC6tXsC5-22">
                    <mxGeometry x="-0.0017" relative="1" as="geometry">
                        <mxPoint as="offset"/>
                    </mxGeometry>
                </mxCell>
                <mxCell id="CtqJxJh_Qd7vwC6tXsC5-20" value="E" style="ellipse;whiteSpace=wrap;html=1;aspect=fixed;labelBackgroundColor=none;fontColor=#333333;fillColor=#f5f5f5;strokeColor=#666666;" vertex="1" parent="CtqJxJh_Qd7vwC6tXsC5-1">
                    <mxGeometry x="720" y="280" width="80" height="80" as="geometry"/>
                </mxCell>
                <mxCell id="CtqJxJh_Qd7vwC6tXsC5-21" value="D" style="ellipse;whiteSpace=wrap;html=1;aspect=fixed;labelBackgroundColor=none;fontColor=#333333;fillColor=#f5f5f5;strokeColor=#666666;" vertex="1" parent="CtqJxJh_Qd7vwC6tXsC5-1">
                    <mxGeometry x="80" y="440" width="80" height="80" as="geometry"/>
                </mxCell>
                <mxCell id="CtqJxJh_Qd7vwC6tXsC5-22" value="G" style="ellipse;whiteSpace=wrap;html=1;aspect=fixed;labelBackgroundColor=none;fontColor=#333333;fillColor=#f5f5f5;strokeColor=#666666;" vertex="1" parent="CtqJxJh_Qd7vwC6tXsC5-1">
                    <mxGeometry x="400" y="440" width="80" height="80" as="geometry"/>
                </mxCell>
                <mxCell id="CtqJxJh_Qd7vwC6tXsC5-23" value="&lt;font style=&quot;font-size: 13px;&quot;&gt;5&lt;/font&gt;" style="endArrow=none;html=1;exitX=1;exitY=0.5;exitDx=0;exitDy=0;entryX=0;entryY=0.5;entryDx=0;entryDy=0;labelBackgroundColor=none;fontColor=#000000;fillColor=#f5f5f5;strokeColor=#666666;" edge="1" parent="CtqJxJh_Qd7vwC6tXsC5-1" source="CtqJxJh_Qd7vwC6tXsC5-5" target="CtqJxJh_Qd7vwC6tXsC5-9">
                    <mxGeometry width="50" height="50" relative="1" as="geometry">
                        <mxPoint x="490" y="420" as="sourcePoint"/>
                        <mxPoint x="540" y="370" as="targetPoint"/>
                        <Array as="points"/>
                    </mxGeometry>
                </mxCell>
                <mxCell id="CtqJxJh_Qd7vwC6tXsC5-24" value="&lt;font style=&quot;font-size: 14px;&quot;&gt;7&lt;/font&gt;" style="endArrow=none;html=1;exitX=1;exitY=0.5;exitDx=0;exitDy=0;entryX=0;entryY=0.5;entryDx=0;entryDy=0;labelBackgroundColor=none;fontColor=#000000;fillColor=#f5f5f5;strokeColor=#666666;" edge="1" parent="CtqJxJh_Qd7vwC6tXsC5-1" source="CtqJxJh_Qd7vwC6tXsC5-9" target="CtqJxJh_Qd7vwC6tXsC5-11">
                    <mxGeometry width="50" height="50" relative="1" as="geometry">
                        <mxPoint x="490" y="420" as="sourcePoint"/>
                        <mxPoint x="540" y="370" as="targetPoint"/>
                        <mxPoint as="offset"/>
                    </mxGeometry>
                </mxCell>
                <mxCell id="CtqJxJh_Qd7vwC6tXsC5-25" value="&lt;font style=&quot;font-size: 14px;&quot;&gt;15&lt;/font&gt;" style="curved=1;endArrow=none;html=1;entryX=1;entryY=0.5;entryDx=0;entryDy=0;exitX=0.5;exitY=1;exitDx=0;exitDy=0;endFill=0;labelBackgroundColor=none;fontColor=#000000;fillColor=#f5f5f5;strokeColor=#666666;" edge="1" parent="CtqJxJh_Qd7vwC6tXsC5-1" source="CtqJxJh_Qd7vwC6tXsC5-21" target="CtqJxJh_Qd7vwC6tXsC5-11">
                    <mxGeometry x="0.2703" y="62" width="50" height="50" relative="1" as="geometry">
                        <mxPoint x="490" y="420" as="sourcePoint"/>
                        <mxPoint x="540" y="370" as="targetPoint"/>
                        <Array as="points">
                            <mxPoint x="1010" y="730"/>
                            <mxPoint x="1020" y="370"/>
                        </Array>
                        <mxPoint as="offset"/>
                    </mxGeometry>
                </mxCell>
                <mxCell id="JO1BgPIIEs71kPbP9E9J-0" value="Prim" style="text;html=1;align=center;verticalAlign=middle;resizable=0;points=[];autosize=1;strokeColor=#666666;fillColor=#f5f5f5;fontSize=40;labelBackgroundColor=none;fontColor=#333333;" vertex="1" parent="CtqJxJh_Qd7vwC6tXsC5-1">
                    <mxGeometry x="530" y="10" width="110" height="60" as="geometry"/>
                </mxCell>
            </root>
        </mxGraphModel>
    </diagram>
    <diagram name="Dijkstra" id="g-yTQwRLBEaHKC6D9vNy">
        <mxGraphModel dx="1146" dy="1076" grid="0" gridSize="10" guides="1" tooltips="1" connect="1" arrows="1" fold="1" page="1" pageScale="1" pageWidth="1169" pageHeight="827" background="#ffffff" math="0" shadow="1">
            <root>
                <mxCell id="kS4ohVLQ0oYa4zB0OJ1e-0"/>
                <mxCell id="kS4ohVLQ0oYa4zB0OJ1e-1" parent="kS4ohVLQ0oYa4zB0OJ1e-0"/>
                <mxCell id="kS4ohVLQ0oYa4zB0OJ1e-2" value="&lt;font style=&quot;font-size: 14px;&quot;&gt;10&lt;/font&gt;" style="edgeStyle=none;html=1;entryX=0.5;entryY=0;entryDx=0;entryDy=0;endArrow=none;endFill=0;rounded=0;fontColor=#000000;fillColor=#f5f5f5;strokeColor=#666666;labelBackgroundColor=none;" parent="kS4ohVLQ0oYa4zB0OJ1e-1" source="kS4ohVLQ0oYa4zB0OJ1e-5" target="kS4ohVLQ0oYa4zB0OJ1e-15" edge="1">
                    <mxGeometry x="-0.0021" relative="1" as="geometry">
                        <mxPoint as="offset"/>
                    </mxGeometry>
                </mxCell>
                <mxCell id="kS4ohVLQ0oYa4zB0OJ1e-3" value="&lt;font style=&quot;font-size: 13px;&quot;&gt;4&lt;/font&gt;" style="edgeStyle=none;html=1;entryX=0;entryY=0;entryDx=0;entryDy=0;endArrow=none;endFill=0;rounded=0;fontColor=#000000;fillColor=#f5f5f5;strokeColor=#666666;labelBackgroundColor=none;" parent="kS4ohVLQ0oYa4zB0OJ1e-1" source="kS4ohVLQ0oYa4zB0OJ1e-5" target="kS4ohVLQ0oYa4zB0OJ1e-17" edge="1">
                    <mxGeometry relative="1" as="geometry"/>
                </mxCell>
                <mxCell id="kS4ohVLQ0oYa4zB0OJ1e-4" value="&lt;font style=&quot;font-size: 13px;&quot;&gt;2&lt;/font&gt;" style="edgeStyle=none;html=1;entryX=0.5;entryY=0;entryDx=0;entryDy=0;endArrow=none;endFill=0;strokeWidth=1;rounded=0;fontColor=#000000;fillColor=#f5f5f5;strokeColor=#666666;labelBackgroundColor=none;" parent="kS4ohVLQ0oYa4zB0OJ1e-1" source="kS4ohVLQ0oYa4zB0OJ1e-5" target="kS4ohVLQ0oYa4zB0OJ1e-21" edge="1">
                    <mxGeometry x="-0.5" y="20" relative="1" as="geometry">
                        <mxPoint as="offset"/>
                    </mxGeometry>
                </mxCell>
                <mxCell id="kS4ohVLQ0oYa4zB0OJ1e-5" value="A" style="ellipse;whiteSpace=wrap;html=1;aspect=fixed;rounded=0;fontColor=#333333;fillColor=#f5f5f5;strokeColor=#666666;labelBackgroundColor=none;" parent="kS4ohVLQ0oYa4zB0OJ1e-1" vertex="1">
                    <mxGeometry x="80" y="120" width="80" height="80" as="geometry"/>
                </mxCell>
                <mxCell id="kS4ohVLQ0oYa4zB0OJ1e-6" value="&lt;font style=&quot;font-size: 14px;&quot;&gt;1&lt;/font&gt;" style="edgeStyle=none;html=1;entryX=0;entryY=0;entryDx=0;entryDy=0;endArrow=none;endFill=0;rounded=0;fontColor=#000000;fillColor=#f5f5f5;strokeColor=#666666;labelBackgroundColor=none;" parent="kS4ohVLQ0oYa4zB0OJ1e-1" source="kS4ohVLQ0oYa4zB0OJ1e-9" target="kS4ohVLQ0oYa4zB0OJ1e-20" edge="1">
                    <mxGeometry relative="1" as="geometry"/>
                </mxCell>
                <mxCell id="kS4ohVLQ0oYa4zB0OJ1e-7" value="&lt;font style=&quot;font-size: 14px;&quot;&gt;5&lt;/font&gt;" style="edgeStyle=none;html=1;entryX=1;entryY=0;entryDx=0;entryDy=0;endArrow=none;endFill=0;rounded=0;fontColor=#000000;fillColor=#f5f5f5;strokeColor=#666666;labelBackgroundColor=none;" parent="kS4ohVLQ0oYa4zB0OJ1e-1" source="kS4ohVLQ0oYa4zB0OJ1e-9" target="kS4ohVLQ0oYa4zB0OJ1e-17" edge="1">
                    <mxGeometry relative="1" as="geometry"/>
                </mxCell>
                <mxCell id="kS4ohVLQ0oYa4zB0OJ1e-8" value="&lt;font style=&quot;font-size: 14px;&quot;&gt;6&lt;/font&gt;" style="edgeStyle=none;html=1;entryX=0.5;entryY=0;entryDx=0;entryDy=0;endArrow=none;endFill=0;rounded=0;fontColor=#000000;fillColor=#f5f5f5;strokeColor=#666666;labelBackgroundColor=none;" parent="kS4ohVLQ0oYa4zB0OJ1e-1" source="kS4ohVLQ0oYa4zB0OJ1e-9" target="kS4ohVLQ0oYa4zB0OJ1e-22" edge="1">
                    <mxGeometry x="-0.5" y="-20" relative="1" as="geometry">
                        <mxPoint as="offset"/>
                    </mxGeometry>
                </mxCell>
                <mxCell id="kS4ohVLQ0oYa4zB0OJ1e-9" value="C" style="ellipse;whiteSpace=wrap;html=1;aspect=fixed;rounded=0;fontColor=#333333;fillColor=#f5f5f5;strokeColor=#666666;labelBackgroundColor=none;" parent="kS4ohVLQ0oYa4zB0OJ1e-1" vertex="1">
                    <mxGeometry x="400" y="120" width="80" height="80" as="geometry"/>
                </mxCell>
                <mxCell id="kS4ohVLQ0oYa4zB0OJ1e-10" value="&lt;font style=&quot;font-size: 14px;&quot;&gt;2&lt;/font&gt;" style="edgeStyle=none;html=1;entryX=0.5;entryY=0;entryDx=0;entryDy=0;endArrow=none;endFill=0;rounded=0;fontColor=#000000;fillColor=#f5f5f5;strokeColor=#666666;labelBackgroundColor=none;" parent="kS4ohVLQ0oYa4zB0OJ1e-1" source="kS4ohVLQ0oYa4zB0OJ1e-11" target="kS4ohVLQ0oYa4zB0OJ1e-20" edge="1">
                    <mxGeometry relative="1" as="geometry"/>
                </mxCell>
                <mxCell id="kS4ohVLQ0oYa4zB0OJ1e-11" value="F" style="ellipse;whiteSpace=wrap;html=1;aspect=fixed;rounded=0;fontColor=#333333;fillColor=#f5f5f5;strokeColor=#666666;labelBackgroundColor=none;" parent="kS4ohVLQ0oYa4zB0OJ1e-1" vertex="1">
                    <mxGeometry x="720" y="120" width="80" height="80" as="geometry"/>
                </mxCell>
                <mxCell id="kS4ohVLQ0oYa4zB0OJ1e-12" value="&lt;font style=&quot;font-size: 13px;&quot;&gt;6&lt;/font&gt;" style="edgeStyle=none;html=1;entryX=0;entryY=0.5;entryDx=0;entryDy=0;endArrow=none;endFill=0;rounded=0;fontColor=#000000;fillColor=#f5f5f5;strokeColor=#666666;labelBackgroundColor=none;" parent="kS4ohVLQ0oYa4zB0OJ1e-1" source="kS4ohVLQ0oYa4zB0OJ1e-15" target="kS4ohVLQ0oYa4zB0OJ1e-17" edge="1">
                    <mxGeometry x="0.375" y="-10" relative="1" as="geometry">
                        <mxPoint as="offset"/>
                    </mxGeometry>
                </mxCell>
                <mxCell id="kS4ohVLQ0oYa4zB0OJ1e-13" value="&lt;font style=&quot;font-size: 14px;&quot;&gt;7&lt;/font&gt;" style="edgeStyle=none;html=1;entryX=0;entryY=0.5;entryDx=0;entryDy=0;endArrow=none;endFill=0;rounded=0;fontColor=#000000;fillColor=#f5f5f5;strokeColor=#666666;labelBackgroundColor=none;" parent="kS4ohVLQ0oYa4zB0OJ1e-1" source="kS4ohVLQ0oYa4zB0OJ1e-15" target="kS4ohVLQ0oYa4zB0OJ1e-22" edge="1">
                    <mxGeometry relative="1" as="geometry"/>
                </mxCell>
                <mxCell id="kS4ohVLQ0oYa4zB0OJ1e-14" value="&lt;font style=&quot;font-size: 14px;&quot;&gt;7&lt;/font&gt;" style="edgeStyle=none;html=1;entryX=0;entryY=0.5;entryDx=0;entryDy=0;endArrow=none;endFill=0;rounded=0;fontColor=#000000;fillColor=#f5f5f5;strokeColor=#666666;labelBackgroundColor=none;" parent="kS4ohVLQ0oYa4zB0OJ1e-1" source="kS4ohVLQ0oYa4zB0OJ1e-15" target="kS4ohVLQ0oYa4zB0OJ1e-21" edge="1">
                    <mxGeometry relative="1" as="geometry"/>
                </mxCell>
                <mxCell id="kS4ohVLQ0oYa4zB0OJ1e-15" value="H" style="ellipse;whiteSpace=wrap;html=1;aspect=fixed;rounded=0;fontColor=#333333;fillColor=#f5f5f5;strokeColor=#666666;labelBackgroundColor=none;" parent="kS4ohVLQ0oYa4zB0OJ1e-1" vertex="1">
                    <mxGeometry y="280" width="80" height="80" as="geometry"/>
                </mxCell>
                <mxCell id="kS4ohVLQ0oYa4zB0OJ1e-16" value="&lt;font style=&quot;font-size: 14px;&quot;&gt;6&lt;/font&gt;" style="edgeStyle=none;html=1;entryX=0;entryY=0.5;entryDx=0;entryDy=0;endArrow=none;endFill=0;rounded=0;fontColor=#000000;fillColor=#f5f5f5;strokeColor=#666666;labelBackgroundColor=none;" parent="kS4ohVLQ0oYa4zB0OJ1e-1" source="kS4ohVLQ0oYa4zB0OJ1e-17" target="kS4ohVLQ0oYa4zB0OJ1e-20" edge="1">
                    <mxGeometry y="20" relative="1" as="geometry">
                        <Array as="points">
                            <mxPoint x="440" y="320"/>
                        </Array>
                        <mxPoint as="offset"/>
                    </mxGeometry>
                </mxCell>
                <mxCell id="kS4ohVLQ0oYa4zB0OJ1e-17" value="B" style="ellipse;whiteSpace=wrap;html=1;aspect=fixed;rounded=0;fontColor=#333333;fillColor=#f5f5f5;strokeColor=#666666;labelBackgroundColor=none;" parent="kS4ohVLQ0oYa4zB0OJ1e-1" vertex="1">
                    <mxGeometry x="240" y="280" width="80" height="80" as="geometry"/>
                </mxCell>
                <mxCell id="kS4ohVLQ0oYa4zB0OJ1e-18" value="&lt;font style=&quot;font-size: 14px;&quot;&gt;12&lt;/font&gt;" style="edgeStyle=none;html=1;entryX=1;entryY=0.5;entryDx=0;entryDy=0;endArrow=none;endFill=0;rounded=0;fontColor=#000000;fillColor=#f5f5f5;strokeColor=#666666;labelBackgroundColor=none;" parent="kS4ohVLQ0oYa4zB0OJ1e-1" source="kS4ohVLQ0oYa4zB0OJ1e-20" target="kS4ohVLQ0oYa4zB0OJ1e-21" edge="1">
                    <mxGeometry x="-0.295" y="-14" relative="1" as="geometry">
                        <mxPoint as="offset"/>
                    </mxGeometry>
                </mxCell>
                <mxCell id="kS4ohVLQ0oYa4zB0OJ1e-19" value="&lt;font style=&quot;font-size: 14px;&quot;&gt;8&lt;/font&gt;" style="edgeStyle=none;html=1;entryX=1;entryY=0.5;entryDx=0;entryDy=0;endArrow=none;endFill=0;rounded=0;fontColor=#000000;fillColor=#f5f5f5;strokeColor=#666666;labelBackgroundColor=none;" parent="kS4ohVLQ0oYa4zB0OJ1e-1" source="kS4ohVLQ0oYa4zB0OJ1e-20" target="kS4ohVLQ0oYa4zB0OJ1e-22" edge="1">
                    <mxGeometry x="-0.0017" relative="1" as="geometry">
                        <mxPoint as="offset"/>
                    </mxGeometry>
                </mxCell>
                <mxCell id="kS4ohVLQ0oYa4zB0OJ1e-20" value="E" style="ellipse;whiteSpace=wrap;html=1;aspect=fixed;rounded=0;fontColor=#333333;fillColor=#f5f5f5;strokeColor=#666666;labelBackgroundColor=none;" parent="kS4ohVLQ0oYa4zB0OJ1e-1" vertex="1">
                    <mxGeometry x="720" y="280" width="80" height="80" as="geometry"/>
                </mxCell>
                <mxCell id="kS4ohVLQ0oYa4zB0OJ1e-21" value="D" style="ellipse;whiteSpace=wrap;html=1;aspect=fixed;rounded=0;fontColor=#333333;fillColor=#f5f5f5;strokeColor=#666666;labelBackgroundColor=none;" parent="kS4ohVLQ0oYa4zB0OJ1e-1" vertex="1">
                    <mxGeometry x="80" y="440" width="80" height="80" as="geometry"/>
                </mxCell>
                <mxCell id="kS4ohVLQ0oYa4zB0OJ1e-22" value="G" style="ellipse;whiteSpace=wrap;html=1;aspect=fixed;rounded=0;fontColor=#333333;fillColor=#f5f5f5;strokeColor=#666666;labelBackgroundColor=none;" parent="kS4ohVLQ0oYa4zB0OJ1e-1" vertex="1">
                    <mxGeometry x="400" y="440" width="80" height="80" as="geometry"/>
                </mxCell>
                <mxCell id="kS4ohVLQ0oYa4zB0OJ1e-23" value="&lt;font style=&quot;font-size: 13px;&quot;&gt;5&lt;/font&gt;" style="endArrow=none;html=1;exitX=1;exitY=0.5;exitDx=0;exitDy=0;entryX=0;entryY=0.5;entryDx=0;entryDy=0;rounded=0;fontColor=#000000;fillColor=#f5f5f5;strokeColor=#666666;labelBackgroundColor=none;" parent="kS4ohVLQ0oYa4zB0OJ1e-1" source="kS4ohVLQ0oYa4zB0OJ1e-5" target="kS4ohVLQ0oYa4zB0OJ1e-9" edge="1">
                    <mxGeometry width="50" height="50" relative="1" as="geometry">
                        <mxPoint x="490" y="420" as="sourcePoint"/>
                        <mxPoint x="540" y="370" as="targetPoint"/>
                        <Array as="points"/>
                    </mxGeometry>
                </mxCell>
                <mxCell id="kS4ohVLQ0oYa4zB0OJ1e-24" value="&lt;font style=&quot;font-size: 14px;&quot;&gt;7&lt;/font&gt;" style="endArrow=none;html=1;exitX=1;exitY=0.5;exitDx=0;exitDy=0;entryX=0;entryY=0.5;entryDx=0;entryDy=0;rounded=0;fontColor=#000000;fillColor=#f5f5f5;strokeColor=#666666;labelBackgroundColor=none;" parent="kS4ohVLQ0oYa4zB0OJ1e-1" source="kS4ohVLQ0oYa4zB0OJ1e-9" target="kS4ohVLQ0oYa4zB0OJ1e-11" edge="1">
                    <mxGeometry width="50" height="50" relative="1" as="geometry">
                        <mxPoint x="490" y="420" as="sourcePoint"/>
                        <mxPoint x="540" y="370" as="targetPoint"/>
                        <mxPoint as="offset"/>
                    </mxGeometry>
                </mxCell>
                <mxCell id="kS4ohVLQ0oYa4zB0OJ1e-25" value="&lt;font style=&quot;font-size: 14px;&quot;&gt;15&lt;/font&gt;" style="curved=1;endArrow=none;html=1;entryX=1;entryY=0.5;entryDx=0;entryDy=0;exitX=0.5;exitY=1;exitDx=0;exitDy=0;endFill=0;rounded=0;fontColor=#000000;fillColor=#f5f5f5;strokeColor=#666666;labelBackgroundColor=none;" parent="kS4ohVLQ0oYa4zB0OJ1e-1" source="kS4ohVLQ0oYa4zB0OJ1e-21" target="kS4ohVLQ0oYa4zB0OJ1e-11" edge="1">
                    <mxGeometry x="0.2703" y="62" width="50" height="50" relative="1" as="geometry">
                        <mxPoint x="490" y="420" as="sourcePoint"/>
                        <mxPoint x="540" y="370" as="targetPoint"/>
                        <Array as="points">
                            <mxPoint x="1010" y="730"/>
                            <mxPoint x="1020" y="370"/>
                        </Array>
                        <mxPoint as="offset"/>
                    </mxGeometry>
                </mxCell>
                <mxCell id="UIuMkbCrO4_A-GHcFxzM-0" value="Inicio" style="text;html=1;align=center;verticalAlign=middle;resizable=0;points=[];autosize=1;fontSize=14;rounded=0;fontColor=#333333;fillColor=#f5f5f5;strokeColor=#666666;labelBackgroundColor=none;" parent="kS4ohVLQ0oYa4zB0OJ1e-1" vertex="1">
                    <mxGeometry y="370" width="60" height="30" as="geometry"/>
                </mxCell>
                <mxCell id="UIuMkbCrO4_A-GHcFxzM-1" value="Final" style="text;html=1;align=center;verticalAlign=middle;resizable=0;points=[];autosize=1;fontSize=14;rounded=0;fontColor=#333333;fillColor=#f5f5f5;strokeColor=#666666;labelBackgroundColor=none;" parent="kS4ohVLQ0oYa4zB0OJ1e-1" vertex="1">
                    <mxGeometry x="790" y="100" width="50" height="30" as="geometry"/>
                </mxCell>
                <mxCell id="UIuMkbCrO4_A-GHcFxzM-2" value="[0,-]" style="text;html=1;align=center;verticalAlign=middle;resizable=0;points=[];autosize=1;fontSize=14;rounded=0;fontColor=#333333;fillColor=#f5f5f5;strokeColor=#666666;labelBackgroundColor=none;" parent="kS4ohVLQ0oYa4zB0OJ1e-1" vertex="1">
                    <mxGeometry y="250" width="50" height="30" as="geometry"/>
                </mxCell>
                <mxCell id="UIuMkbCrO4_A-GHcFxzM-3" value="[6,H]" style="text;html=1;align=center;verticalAlign=middle;resizable=0;points=[];autosize=1;fontSize=14;rounded=0;fontColor=#333333;fillColor=#f5f5f5;strokeColor=#666666;labelBackgroundColor=none;" parent="kS4ohVLQ0oYa4zB0OJ1e-1" vertex="1">
                    <mxGeometry x="275" y="355" width="50" height="30" as="geometry"/>
                </mxCell>
                <mxCell id="UIuMkbCrO4_A-GHcFxzM-4" value="[12,B]" style="text;html=1;align=center;verticalAlign=middle;resizable=0;points=[];autosize=1;fontSize=14;rounded=0;fontColor=#333333;fillColor=#f5f5f5;strokeColor=#666666;labelBackgroundColor=none;" parent="kS4ohVLQ0oYa4zB0OJ1e-1" vertex="1">
                    <mxGeometry x="758" y="368" width="60" height="30" as="geometry"/>
                </mxCell>
                <mxCell id="UIuMkbCrO4_A-GHcFxzM-5" value="[14,E]" style="text;html=1;align=center;verticalAlign=middle;resizable=0;points=[];autosize=1;fontSize=14;rounded=0;fontColor=#333333;fillColor=#f5f5f5;strokeColor=#666666;labelBackgroundColor=none;" parent="kS4ohVLQ0oYa4zB0OJ1e-1" vertex="1">
                    <mxGeometry x="692" y="88" width="60" height="30" as="geometry"/>
                </mxCell>
                <mxCell id="UIuMkbCrO4_A-GHcFxzM-6" value="[11,B]" style="text;html=1;align=center;verticalAlign=middle;resizable=0;points=[];autosize=1;fontSize=14;rounded=0;fontColor=#333333;fillColor=#f5f5f5;strokeColor=#666666;labelBackgroundColor=none;" parent="kS4ohVLQ0oYa4zB0OJ1e-1" vertex="1">
                    <mxGeometry x="430" y="85" width="60" height="30" as="geometry"/>
                </mxCell>
                <mxCell id="UIuMkbCrO4_A-GHcFxzM-7" value="[12,C]" style="text;html=1;align=center;verticalAlign=middle;resizable=0;points=[];autosize=1;fontSize=14;rounded=0;fontColor=#333333;fillColor=#f5f5f5;strokeColor=#666666;labelBackgroundColor=none;" parent="kS4ohVLQ0oYa4zB0OJ1e-1" vertex="1">
                    <mxGeometry x="800" y="335" width="60" height="30" as="geometry"/>
                </mxCell>
                <mxCell id="UIuMkbCrO4_A-GHcFxzM-8" value="[14,E]" style="text;html=1;align=center;verticalAlign=middle;resizable=0;points=[];autosize=1;fontSize=14;rounded=0;fontColor=#333333;fillColor=#f5f5f5;strokeColor=#666666;labelBackgroundColor=none;" parent="kS4ohVLQ0oYa4zB0OJ1e-1" vertex="1">
                    <mxGeometry x="812" y="142" width="60" height="30" as="geometry"/>
                </mxCell>
                <mxCell id="UIuMkbCrO4_A-GHcFxzM-9" value="Valor del recorrido: 14&lt;br&gt;Camino más corto: H-B-E-F" style="text;html=1;align=center;verticalAlign=middle;resizable=0;points=[];autosize=1;fontSize=14;rounded=0;fontColor=#333333;fillColor=#f5f5f5;strokeColor=#666666;labelBackgroundColor=none;" parent="kS4ohVLQ0oYa4zB0OJ1e-1" vertex="1">
                    <mxGeometry x="890" y="95" width="200" height="50" as="geometry"/>
                </mxCell>
                <mxCell id="X9YIv5Lt1wVRUWH-H85a-0" value="&lt;font style=&quot;font-size: 40px;&quot;&gt;Dijkstra&lt;/font&gt;" style="text;html=1;align=center;verticalAlign=middle;resizable=0;points=[];autosize=1;fontSize=14;rounded=0;fontColor=#333333;fillColor=#f5f5f5;strokeColor=#666666;labelBackgroundColor=none;" parent="kS4ohVLQ0oYa4zB0OJ1e-1" vertex="1">
                    <mxGeometry x="504" y="10" width="160" height="60" as="geometry"/>
                </mxCell>
            </root>
        </mxGraphModel>
    </diagram>
    <diagram id="F-j-1Gsy_TgmUtBay4-U" name="Página-1">
        <mxGraphModel dx="992" dy="1076" grid="1" gridSize="10" guides="1" tooltips="1" connect="1" arrows="1" fold="1" page="1" pageScale="1" pageWidth="1169" pageHeight="827" background="none" math="0" shadow="0">
            <root>
                <mxCell id="0"/>
                <mxCell id="1" parent="0"/>
                <mxCell id="16" value="&lt;font style=&quot;font-size: 14px;&quot;&gt;10&lt;/font&gt;" style="edgeStyle=none;html=1;entryX=0.5;entryY=0;entryDx=0;entryDy=0;endArrow=none;endFill=0;" edge="1" parent="1" source="2" target="5">
                    <mxGeometry x="-0.0021" relative="1" as="geometry">
                        <mxPoint as="offset"/>
                    </mxGeometry>
                </mxCell>
                <mxCell id="17" value="&lt;font style=&quot;font-size: 13px;&quot;&gt;4&lt;/font&gt;" style="edgeStyle=none;html=1;entryX=0;entryY=0;entryDx=0;entryDy=0;endArrow=none;endFill=0;" edge="1" parent="1" source="2" target="6">
                    <mxGeometry relative="1" as="geometry"/>
                </mxCell>
                <mxCell id="23" value="&lt;font style=&quot;font-size: 13px;&quot;&gt;2&lt;/font&gt;" style="edgeStyle=none;html=1;entryX=0.5;entryY=0;entryDx=0;entryDy=0;endArrow=none;endFill=0;strokeWidth=1;" edge="1" parent="1" source="2" target="8">
                    <mxGeometry x="-0.5" y="20" relative="1" as="geometry">
                        <mxPoint as="offset"/>
                    </mxGeometry>
                </mxCell>
                <mxCell id="2" value="A" style="ellipse;whiteSpace=wrap;html=1;aspect=fixed;" vertex="1" parent="1">
                    <mxGeometry x="80" y="120" width="80" height="80" as="geometry"/>
                </mxCell>
                <mxCell id="14" value="&lt;font style=&quot;font-size: 14px;&quot;&gt;1&lt;/font&gt;" style="edgeStyle=none;html=1;entryX=0;entryY=0;entryDx=0;entryDy=0;endArrow=none;endFill=0;" edge="1" parent="1" source="3" target="7">
                    <mxGeometry relative="1" as="geometry"/>
                </mxCell>
                <mxCell id="19" value="&lt;font style=&quot;font-size: 14px;&quot;&gt;5&lt;/font&gt;" style="edgeStyle=none;html=1;entryX=1;entryY=0;entryDx=0;entryDy=0;endArrow=none;endFill=0;" edge="1" parent="1" source="3" target="6">
                    <mxGeometry relative="1" as="geometry"/>
                </mxCell>
                <mxCell id="24" value="&lt;font style=&quot;font-size: 14px;&quot;&gt;6&lt;/font&gt;" style="edgeStyle=none;html=1;entryX=0.5;entryY=0;entryDx=0;entryDy=0;endArrow=none;endFill=0;" edge="1" parent="1" source="3" target="9">
                    <mxGeometry x="-0.5" y="-20" relative="1" as="geometry">
                        <mxPoint as="offset"/>
                    </mxGeometry>
                </mxCell>
                <mxCell id="3" value="C" style="ellipse;whiteSpace=wrap;html=1;aspect=fixed;" vertex="1" parent="1">
                    <mxGeometry x="400" y="120" width="80" height="80" as="geometry"/>
                </mxCell>
                <mxCell id="13" value="&lt;font style=&quot;font-size: 14px;&quot;&gt;2&lt;/font&gt;" style="edgeStyle=none;html=1;entryX=0.5;entryY=0;entryDx=0;entryDy=0;endArrow=none;endFill=0;" edge="1" parent="1" source="4" target="7">
                    <mxGeometry relative="1" as="geometry"/>
                </mxCell>
                <mxCell id="4" value="F" style="ellipse;whiteSpace=wrap;html=1;aspect=fixed;" vertex="1" parent="1">
                    <mxGeometry x="720" y="120" width="80" height="80" as="geometry"/>
                </mxCell>
                <mxCell id="18" value="&lt;font style=&quot;font-size: 13px;&quot;&gt;6&lt;/font&gt;" style="edgeStyle=none;html=1;entryX=0;entryY=0.5;entryDx=0;entryDy=0;endArrow=none;endFill=0;" edge="1" parent="1" source="5" target="6">
                    <mxGeometry x="0.375" y="-10" relative="1" as="geometry">
                        <mxPoint as="offset"/>
                    </mxGeometry>
                </mxCell>
                <mxCell id="20" value="&lt;font style=&quot;font-size: 14px;&quot;&gt;7&lt;/font&gt;" style="edgeStyle=none;html=1;entryX=0;entryY=0.5;entryDx=0;entryDy=0;endArrow=none;endFill=0;" edge="1" parent="1" source="5" target="9">
                    <mxGeometry relative="1" as="geometry"/>
                </mxCell>
                <mxCell id="22" value="&lt;font style=&quot;font-size: 14px;&quot;&gt;7&lt;/font&gt;" style="edgeStyle=none;html=1;entryX=0;entryY=0.5;entryDx=0;entryDy=0;endArrow=none;endFill=0;" edge="1" parent="1" source="5" target="8">
                    <mxGeometry relative="1" as="geometry"/>
                </mxCell>
                <mxCell id="5" value="H" style="ellipse;whiteSpace=wrap;html=1;aspect=fixed;" vertex="1" parent="1">
                    <mxGeometry y="280" width="80" height="80" as="geometry"/>
                </mxCell>
                <mxCell id="15" value="&lt;font style=&quot;font-size: 14px;&quot;&gt;6&lt;/font&gt;" style="edgeStyle=none;html=1;entryX=0;entryY=0.5;entryDx=0;entryDy=0;endArrow=none;endFill=0;" edge="1" parent="1" source="6" target="7">
                    <mxGeometry y="20" relative="1" as="geometry">
                        <Array as="points">
                            <mxPoint x="440" y="320"/>
                        </Array>
                        <mxPoint as="offset"/>
                    </mxGeometry>
                </mxCell>
                <mxCell id="6" value="B" style="ellipse;whiteSpace=wrap;html=1;aspect=fixed;" vertex="1" parent="1">
                    <mxGeometry x="240" y="280" width="80" height="80" as="geometry"/>
                </mxCell>
                <mxCell id="21" value="&lt;font style=&quot;font-size: 14px;&quot;&gt;12&lt;/font&gt;" style="edgeStyle=none;html=1;entryX=1;entryY=0.5;entryDx=0;entryDy=0;endArrow=none;endFill=0;" edge="1" parent="1" source="7" target="8">
                    <mxGeometry x="-0.295" y="-14" relative="1" as="geometry">
                        <mxPoint as="offset"/>
                    </mxGeometry>
                </mxCell>
                <mxCell id="25" value="&lt;font style=&quot;font-size: 14px;&quot;&gt;8&lt;/font&gt;" style="edgeStyle=none;html=1;entryX=1;entryY=0.5;entryDx=0;entryDy=0;endArrow=none;endFill=0;" edge="1" parent="1" source="7" target="9">
                    <mxGeometry x="-0.0017" relative="1" as="geometry">
                        <mxPoint as="offset"/>
                    </mxGeometry>
                </mxCell>
                <mxCell id="7" value="E" style="ellipse;whiteSpace=wrap;html=1;aspect=fixed;" vertex="1" parent="1">
                    <mxGeometry x="720" y="280" width="80" height="80" as="geometry"/>
                </mxCell>
                <mxCell id="8" value="D" style="ellipse;whiteSpace=wrap;html=1;aspect=fixed;" vertex="1" parent="1">
                    <mxGeometry x="80" y="440" width="80" height="80" as="geometry"/>
                </mxCell>
                <mxCell id="9" value="G" style="ellipse;whiteSpace=wrap;html=1;aspect=fixed;" vertex="1" parent="1">
                    <mxGeometry x="400" y="440" width="80" height="80" as="geometry"/>
                </mxCell>
                <mxCell id="10" value="&lt;font style=&quot;font-size: 13px;&quot;&gt;5&lt;/font&gt;" style="endArrow=none;html=1;exitX=1;exitY=0.5;exitDx=0;exitDy=0;entryX=0;entryY=0.5;entryDx=0;entryDy=0;" edge="1" parent="1" source="2" target="3">
                    <mxGeometry width="50" height="50" relative="1" as="geometry">
                        <mxPoint x="490" y="420" as="sourcePoint"/>
                        <mxPoint x="540" y="370" as="targetPoint"/>
                        <Array as="points"/>
                    </mxGeometry>
                </mxCell>
                <mxCell id="11" value="&lt;font style=&quot;font-size: 14px;&quot;&gt;7&lt;/font&gt;" style="endArrow=none;html=1;exitX=1;exitY=0.5;exitDx=0;exitDy=0;entryX=0;entryY=0.5;entryDx=0;entryDy=0;" edge="1" parent="1" source="3" target="4">
                    <mxGeometry width="50" height="50" relative="1" as="geometry">
                        <mxPoint x="490" y="420" as="sourcePoint"/>
                        <mxPoint x="540" y="370" as="targetPoint"/>
                        <mxPoint as="offset"/>
                    </mxGeometry>
                </mxCell>
                <mxCell id="12" value="&lt;font style=&quot;font-size: 14px;&quot;&gt;15&lt;/font&gt;" style="curved=1;endArrow=none;html=1;entryX=1;entryY=0.5;entryDx=0;entryDy=0;exitX=0.5;exitY=1;exitDx=0;exitDy=0;endFill=0;" edge="1" parent="1" source="8" target="4">
                    <mxGeometry x="0.2703" y="62" width="50" height="50" relative="1" as="geometry">
                        <mxPoint x="490" y="420" as="sourcePoint"/>
                        <mxPoint x="540" y="370" as="targetPoint"/>
                        <Array as="points">
                            <mxPoint x="1010" y="730"/>
                            <mxPoint x="1020" y="370"/>
                        </Array>
                        <mxPoint as="offset"/>
                    </mxGeometry>
                </mxCell>
            </root>
        </mxGraphModel>
    </diagram>
</mxfile>